<svg xmlns="http://www.w3.org/2000/svg" version="1.1" xmlns:xlink="http://www.w3.org/1999/xlink" xmlns:svgjs="http://svgjs.dev/svgjs" width="2000" height="383" viewBox="0 0 2000 383"><g transform="matrix(1,0,0,1,-1.2121212121212466,-1.9566146532380913)"><svg viewBox="0 0 396 76" data-background-color="#ffffff" preserveAspectRatio="xMidYMid meet" height="383" width="2000" xmlns="http://www.w3.org/2000/svg" xmlns:xlink="http://www.w3.org/1999/xlink"><g id="tight-bounds" transform="matrix(1,0,0,1,0.2400000000000091,0.3882577379793588)"><svg viewBox="0 0 395.52 75.22348452404127" height="75.22348452404127" width="395.52"><g><svg viewBox="0 0 395.52 75.22348452404127" height="75.22348452404127" width="395.52"><g><svg viewBox="0 0 395.52 75.22348452404127" height="75.22348452404127" width="395.52"><g id="textblocktransform"><svg viewBox="0 0 395.52 75.22348452404127" height="75.22348452404127" width="395.52" id="textblock"><g><svg viewBox="0 0 395.52 75.22348452404127" height="75.22348452404127" width="395.52"><g transform="matrix(1,0,0,1,0,0)"><svg width="395.52" viewBox="0.8833333333333333 -38.55 256.8466666666667 48.849999999999994" height="75.22348452404127" data-palette-color="#010c80"><g class="wordmark-text-0" data-fill-palette-color="primary" id="text-0"><path d="M5.65 0L5.65 0Q2.3-0.5 1.3-3.08 0.3-5.65 1.7-9.6L1.7-9.6 8.3-28.35Q9.2-30.95 10.38-32.8 11.55-34.65 13.33-35.65 15.1-36.65 17.75-36.65L17.75-36.65Q21.75-36.65 23.78-34.45 25.8-32.25 27.15-28.35L27.15-28.35 33.7-9.6Q35.1-5.65 34.23-3.08 33.35-0.5 29.95 0L29.95 0Q27.2 0.35 25.18-0.65 23.15-1.65 22.75-3.9L22.75-3.9Q22.45-5.4 22.68-6.4 22.9-7.4 23.1-8L23.1-8Q23.25-8.5 23.13-8.97 23-9.45 22.35-9.45L22.35-9.45 13.05-9.45Q12.4-9.45 12.28-8.97 12.15-8.5 12.35-8L12.35-8Q12.55-7.4 12.75-6.4 12.95-5.4 12.7-3.9L12.7-3.9Q12.3-1.65 10.35-0.65 8.4 0.35 5.65 0ZM14.1-16.45L21.4-16.45 18.8-24.6Q18.7-25.1 18.48-25.38 18.25-25.65 17.75-25.65L17.75-25.65Q17.25-25.65 17.03-25.38 16.8-25.1 16.65-24.6L16.65-24.6 14.1-16.45ZM41.5 0L41.5 0Q39.05 0 37.82-1.3 36.6-2.6 36.6-4.55L36.6-4.55 36.6-33.55Q36.6-35.7 37.82-37.13 39.05-38.55 41.5-38.55L41.5-38.55Q43.7-38.55 44.9-37.13 46.1-35.7 46.1-33.65L46.1-33.65 46.1-4.55Q46.1-2.6 44.9-1.3 43.7 0 41.5 0ZM66.3 0L66.3 0Q63.55 0 61.72-1.7 59.9-3.4 59.4-6.1L59.4-6.1 58.5-6.1 58.5 5.4Q58.5 7.45 57.35 8.88 56.2 10.3 53.85 10.3L53.85 10.3Q51.6 10.3 50.37 8.88 49.15 7.45 49.15 5.3L49.15 5.3 49.15-13.4Q49.15-15.9 48.97-17.63 48.8-19.35 48.65-20.75L48.65-20.75Q48.45-22.85 49.5-24.33 50.55-25.8 52.9-26.1L52.9-26.1Q55.95-26.5 57.22-25.03 58.5-23.55 58.5-20.45L58.5-20.45 58.5-18.05 58.7-18Q58.95-19.95 59.87-21.83 60.8-23.7 62.5-24.93 64.2-26.15 66.8-26.15L66.8-26.15Q71.15-26.15 73.27-22.68 75.4-19.2 75.4-13.4L75.4-13.4Q75.4 0 66.3 0ZM58.3-13.5L58.3-13.5Q58.3-12.7 58.5-12.25L58.5-12.25Q58.8-11.3 59.77-10.88 60.75-10.45 62.7-10.45L62.7-10.45Q65.2-10.45 66.12-11.2 67.05-11.95 67.05-13.5L67.05-13.5Q67.05-15.1 66.15-15.83 65.25-16.55 62.75-16.55L62.75-16.55Q60.75-16.55 59.77-16.13 58.8-15.7 58.5-14.75L58.5-14.75Q58.3-14.3 58.3-13.5ZM82.64 0L82.64 0Q80.44 0 79.17-1.33 77.89-2.65 77.89-4.6L77.89-4.6 77.89-33.55Q77.89-35.65 79.17-37.1 80.44-38.55 82.79-38.55L82.79-38.55Q85.09-38.55 86.27-37.1 87.44-35.65 87.44-33.5L87.44-33.5 87.44-18.55 88.34-18.55Q88.34-21.4 89.37-23.05 90.39-24.7 92.02-25.43 93.64-26.15 95.34-26.15L95.34-26.15Q98.34-26.15 99.92-24.68 101.49-23.2 102.07-20.75 102.64-18.3 102.64-15.4L102.64-15.4 102.64-4.6Q102.64-2.55 101.32-1.28 99.99 0 97.79 0L97.79 0Q95.54 0 94.24-1.28 92.94-2.55 92.94-4.6L92.94-4.6 92.94-13.45Q92.94-15.25 92.24-16.25 91.54-17.25 90.19-17.25L90.19-17.25Q88.84-17.25 88.14-16.15 87.44-15.05 87.44-13.35L87.44-13.35 87.44-4.6Q87.44-2.65 86.17-1.33 84.89 0 82.64 0ZM112.64 0L112.64 0Q108.94 0 106.87-2 104.79-4 104.79-7.6L104.79-7.6Q104.79-11.2 107.19-12.83 109.59-14.45 113.34-14.45L113.34-14.45Q115.54-14.45 117.34-14.15 119.14-13.85 120.59-13.3L120.59-13.3 120.74-13.3 120.74-14.05Q120.74-15.2 119.89-15.88 119.04-16.55 117.74-16.5L117.74-16.5Q116.49-16.5 115.62-16.35 114.74-16.2 113.44-15.85L113.44-15.85Q111.04-15.25 109.29-15.95 107.54-16.65 106.89-18.7L106.89-18.7Q106.29-20.85 107.17-22.3 108.04-23.75 109.84-24.55L109.84-24.55Q111.39-25.3 113.32-25.8 115.24-26.3 117.49-26.3L117.49-26.3Q124.04-26.3 127.12-23.13 130.19-19.95 130.19-12.5L130.19-12.5 130.19-4.75Q130.19-2.7 128.94-1.35 127.69 0 125.49 0L125.49 0Q123.09 0 121.92-1.35 120.74-2.7 120.74-4.65L120.74-4.65 120.74-5.8 119.74-5.8Q119.74-4.5 119.27-3.15 118.79-1.8 117.32-0.9 115.84 0 112.64 0ZM113.14-10.95L113.14-10.95Q113.14-10.1 113.77-9.75 114.39-9.4 116.49-9.4L116.49-9.4Q118.39-9.4 119.14-9.75 119.89-10.1 119.89-10.95L119.89-10.95Q119.89-11.75 119.14-12.08 118.39-12.4 116.49-12.4L116.49-12.4Q114.39-12.4 113.77-12.08 113.14-11.75 113.14-10.95ZM147.14 0.15L147.14 0.15Q144.09 0.15 142.34-1.35 140.59-2.85 139.56-5.48 138.54-8.1 137.64-11.45L137.64-11.45 132.79-29.45Q132.24-31.55 133.04-33.38 133.84-35.2 136.19-35.8L136.19-35.8Q138.39-36.4 140.09-35.5 141.79-34.6 142.39-32.35L142.39-32.35 146.89-15.9Q147.49-13.75 148.16-12.75 148.84-11.75 150.34-12.1L150.34-12.1Q151.74-12.45 151.84-13.65 151.94-14.85 151.34-17.05L151.34-17.05 148.14-29.2Q147.49-31.7 148.31-33.52 149.14-35.35 151.59-35.9L151.59-35.9Q154.09-36.5 155.61-35.27 157.14-34.05 157.69-31.85L157.69-31.85 161.74-15.9Q162.39-13.45 163.16-12.6 163.94-11.75 165.19-12.1L165.19-12.1Q166.59-12.5 166.54-13.68 166.49-14.85 166.19-17.1L166.19-17.1Q165.74-20.6 165.41-22.85 165.09-25.1 164.91-26.6 164.74-28.1 164.74-29.35L164.74-29.35Q164.74-32.15 166.39-34.13 168.04-36.1 170.89-36.1L170.89-36.1Q173.79-36.1 175.29-34.33 176.79-32.55 176.79-29.45L176.79-29.45Q176.79-27.45 176.21-25.25 175.64-23.05 175.09-21.1L175.09-21.1 172.29-11.45Q171.34-8.15 170.41-5.53 169.49-2.9 167.94-1.38 166.39 0.15 163.54 0.15L163.54 0.15Q160.09 0.15 158.14-2 156.19-4.15 155.14-9.05L155.14-9.05 154.79-9.05Q153.79-4.15 152.14-2 150.49 0.15 147.14 0.15ZM186.69 0L186.69 0Q182.99 0 180.91-2 178.84-4 178.84-7.6L178.84-7.6Q178.84-11.2 181.24-12.83 183.64-14.45 187.39-14.45L187.39-14.45Q189.59-14.45 191.39-14.15 193.19-13.85 194.64-13.3L194.64-13.3 194.79-13.3 194.79-14.05Q194.79-15.2 193.94-15.88 193.09-16.55 191.79-16.5L191.79-16.5Q190.54-16.5 189.66-16.35 188.79-16.2 187.49-15.85L187.49-15.85Q185.09-15.25 183.34-15.95 181.59-16.65 180.94-18.7L180.94-18.7Q180.34-20.85 181.21-22.3 182.09-23.75 183.89-24.55L183.89-24.55Q185.44-25.3 187.36-25.8 189.29-26.3 191.54-26.3L191.54-26.3Q198.09-26.3 201.16-23.13 204.24-19.95 204.24-12.5L204.24-12.5 204.24-4.75Q204.24-2.7 202.99-1.35 201.74 0 199.54 0L199.54 0Q197.14 0 195.96-1.35 194.79-2.7 194.79-4.65L194.79-4.65 194.79-5.8 193.79-5.8Q193.79-4.5 193.31-3.15 192.84-1.8 191.36-0.9 189.89 0 186.69 0ZM187.19-10.95L187.19-10.95Q187.19-10.1 187.81-9.75 188.44-9.4 190.54-9.4L190.54-9.4Q192.44-9.4 193.19-9.75 193.94-10.1 193.94-10.95L193.94-10.95Q193.94-11.75 193.19-12.08 192.44-12.4 190.54-12.4L190.54-12.4Q188.44-12.4 187.81-12.08 187.19-11.75 187.19-10.95ZM219.83 0L219.83 0Q216.58 0 214.28-1.9 211.98-3.8 210.48-8.2L210.48-8.2 206.53-19.6Q205.73-21.85 206.56-23.75 207.38-25.65 209.63-26.15L209.63-26.15Q211.63-26.6 213.16-25.75 214.68-24.9 215.33-22.9L215.33-22.9 219.23-11.45Q219.93-9.45 220.96-8.5 221.98-7.55 223.48-8.05L223.48-8.05Q224.88-8.6 225.01-9.88 225.13-11.15 224.43-12.85L224.43-12.85Q223.83-14.4 222.83-15.5 221.83-16.6 221.03-17.8 220.23-19 220.23-20.8L220.23-20.8Q220.23-23.4 221.91-24.88 223.58-26.35 226.33-26.25L226.33-26.25Q228.68-26.2 230.18-24.6 231.68-23 231.68-20.55L231.68-20.55Q231.68-19.2 231.23-17.65 230.78-16.1 230.23-14.4L230.23-14.4 228.23-8.1Q227.43-5.6 226.46-3.78 225.48-1.95 223.96-0.98 222.43 0 219.83 0ZM233.48-13L233.48-13Q233.48-16.95 235.06-19.95 236.63-22.95 239.56-24.65 242.48-26.35 246.53-26.35L246.53-26.35Q249.68-26.35 252.21-25.2 254.73-24.05 256.18-22.13 257.63-20.2 257.63-17.9L257.63-17.9Q257.63-15.5 256.23-14.5 254.83-13.5 252.08-13.5L252.08-13.5 241.58-13.5Q241.58-12.2 242.61-11.35 243.63-10.5 246.08-10.5L246.08-10.5Q247.33-10.5 248.41-10.75 249.48-11 250.61-11.23 251.73-11.45 253.13-11.45L253.13-11.45Q255.13-11.45 256.43-10.03 257.73-8.6 257.73-6.1L257.73-6.1Q257.73-3.15 254.71-1.5 251.68 0.15 246.78 0.15L246.78 0.15Q243.33 0.15 240.31-1.2 237.28-2.55 235.38-5.48 233.48-8.4 233.48-13ZM241.73-15.15L249.68-15.15Q250.43-15.15 250.18-15.85L250.18-15.85Q249.98-16.55 248.98-17.3 247.98-18.05 246.08-18.05L246.08-18.05Q243.88-18.05 242.81-17.1 241.73-16.15 241.73-15.15L241.73-15.15Z" fill="#010c80" data-fill-palette-color="primary"></path></g></svg></g></svg></g></svg></g></svg></g></svg></g><defs></defs></svg><rect width="395.52" height="75.22348452404127" fill="none" stroke="none" visibility="hidden"></rect></g></svg></g></svg>