<svg xmlns="http://www.w3.org/2000/svg" xmlns:xlink="http://www.w3.org/1999/xlink" width="512" height="300" x="0" y="0" version="1.1" viewBox="0 0 105 105" style="enable-background:new 0 0 512 512" xml:space="preserve"><g><path fill="#abecef" d="M44.702 94.319H27.844V42.215h16.858z" data-original="#abecef" opacity="1"/><path fill="#75c5c9" d="M44.706 42.218v52.098h-9.99c1.6-8.93 2.57-20.608 2.57-33.374 0-6.616-.26-12.936-.73-18.724z" data-original="#75c5c9" opacity="1"/><path fill="#5b5476" d="M20.598 97.41a3.094 3.094 0 0 0 3.09 3.092h25.17a3.094 3.094 0 0 0 3.092-3.091 3.083 3.083 0 0 0-3.091-3.091h-25.17a3.083 3.083 0 0 0-3.091 3.09z" data-original="#5b5476" opacity="1"/><path fill="#3f3b5b" d="M51.876 98.067a3.09 3.09 0 0 1-3.02 2.44h-25.17a3.1 3.1 0 0 1-3.09-3.1c0-1.44.98-2.65 2.32-2.99-.05.21-.07.43-.07.66 0 1.7 1.38 3.09 3.09 3.09h25.17c.27 0 .53-.03.77-.1z" data-original="#3f3b5b" opacity="1"/><path fill="#0f0f0f" d="M23.845 64.07a.75.75 0 0 1-.75-.75v-1.834a.75.75 0 0 1 1.5 0v1.834a.75.75 0 0 1-.75.75zM23.845 86.914a.75.75 0 0 1-.75-.75V67.236a.75.75 0 0 1 1.5 0v18.928a.75.75 0 0 1-.75.75zM44.703 95.07H27.845a.75.75 0 0 1-.75-.75V42.216a.75.75 0 0 1 .75-.75h16.858a.75.75 0 0 1 .75.75V94.32a.75.75 0 0 1-.75.75zm-16.108-1.5h15.358V42.966H28.595z" data-original="#0f0f0f" opacity="1"/><path fill="#0f0f0f" d="M48.859 101.252h-25.17c-2.118 0-3.841-1.723-3.841-3.841s1.723-3.841 3.84-3.841h25.17c2.118 0 3.842 1.723 3.842 3.84s-1.724 3.842-3.841 3.842zm-25.17-6.182c-1.291 0-2.341 1.05-2.341 2.34s1.05 2.342 2.34 2.342h25.17c1.291 0 2.342-1.05 2.342-2.341s-1.05-2.341-2.341-2.341zM72.438 22.183a.746.746 0 0 1-.282-.055L35.612 7.285 12.83 18.602a.75.75 0 0 1-.667-1.343L35.248 5.79a.748.748 0 0 1 .616-.023l36.857 14.97a.75.75 0 0 1-.283 1.445z" data-original="#0f0f0f" opacity="1"/><path fill="#abecef" d="M13.728 23.51v5.977c0 1.153.944 2.076 2.097 2.076h67.839c1.846 0 2.79-2.244 1.468-3.566l-6.019-5.956c-.378-.398-.902-.608-1.468-.608h-61.82a2.086 2.086 0 0 0-2.097 2.076z" data-original="#abecef" opacity="1"/><path fill="#75c5c9" d="M83.666 31.558h-67.84c-1.15 0-2.1-.92-2.1-2.07v-4.38c8.23 1.86 20 3.03 33.06 3.03 14.11 0 26.7-1.36 34.97-3.49l3.38 3.35c1.32 1.32.37 3.56-1.47 3.56z" data-original="#75c5c9" opacity="1"/><path fill="#0f0f0f" d="M83.664 32.313H15.825c-1.57 0-2.847-1.268-2.847-2.827V23.51c0-1.558 1.277-2.826 2.847-2.826h61.82c.783 0 1.497.3 2.012.842l6.003 5.94a2.796 2.796 0 0 1 .62 3.096 2.789 2.789 0 0 1-2.616 1.752zm-67.839-10.13c-.743 0-1.347.595-1.347 1.326v5.977c0 .732.604 1.327 1.347 1.327h67.839c.654 0 1.064-.427 1.23-.826a1.302 1.302 0 0 0-.292-1.46l-6.016-5.953a1.266 1.266 0 0 0-.941-.391h-61.82z" data-original="#0f0f0f" opacity="1"/><path fill="#5b5476" d="M6.43 20.95v11.095a3.003 3.003 0 0 0 3 3.02h5.305a3.008 3.008 0 0 0 3.02-3.02V20.951a3.008 3.008 0 0 0-3.02-3.02H9.429c-1.656 0-2.999 1.342-2.999 3.02z" data-original="#5b5476" opacity="1"/><path fill="#3f3b5b" d="M17.716 20.498h-5.15a3 3 0 0 0-3 3.02v11.09c0 .16.01.31.04.46h-.18c-1.65 0-3-1.34-3-3.02v-11.1c0-1.68 1.35-3.02 3-3.02h5.31c1.53 0 2.77 1.11 2.98 2.57z" data-original="#3f3b5b" opacity="1"/><path fill="#5b5476" d="M38.516 17.928h-7.11c-1.59 0-2.8-1.42-2.55-2.99l1.96-8.26a2.59 2.59 0 0 1 2.56-2.18h3.18c1.27 0 2.35.92 2.55 2.18l1.96 8.26c.25 1.57-.96 2.99-2.55 2.99z" data-original="#5b5476" opacity="1"/><path fill="#3f3b5b" d="M39.316 8.018c-.06-.01-.12-.01-.18-.01h-3.18c-1.27 0-2.36.92-2.56 2.18l-1.88 7.74h-.11c-1.59 0-2.8-1.42-2.55-2.99l1.96-8.26a2.59 2.59 0 0 1 2.56-2.18h3.18c1.27 0 2.35.92 2.55 2.18z" data-original="#3f3b5b" opacity="1"/><path fill="#0f0f0f" d="M14.735 35.815H9.43c-2.068 0-3.75-1.691-3.75-3.77V20.951c0-2.08 1.682-3.77 3.75-3.77h5.305a3.774 3.774 0 0 1 3.77 3.77v11.094a3.775 3.775 0 0 1-3.77 3.77zM9.43 18.681a2.262 2.262 0 0 0-2.25 2.27v11.094c0 1.252 1.01 2.27 2.25 2.27h5.305c1.273 0 2.27-.997 2.27-2.27V20.951c0-1.273-.997-2.27-2.27-2.27zM38.516 18.678h-7.11a3.328 3.328 0 0 1-3.29-3.858l1.97-8.315c.248-1.574 1.636-2.757 3.29-2.757h3.18a3.319 3.319 0 0 1 3.291 2.812l1.95 8.205c.164 1.021-.112 2.001-.746 2.744a3.328 3.328 0 0 1-2.535 1.169zm-5.14-13.43a1.83 1.83 0 0 0-1.819 1.547l-1.97 8.316c-.075.477.077 1.016.426 1.425.348.408.856.642 1.393.642h7.11a1.83 1.83 0 0 0 1.81-2.122l-1.95-8.205c-.153-.952-.914-1.603-1.82-1.603h-3.18zM76.312 44.294a.75.75 0 0 1-.75-.75V31.563a.75.75 0 0 1 1.5 0v11.981a.75.75 0 0 1-.75.75z" data-original="#0f0f0f" opacity="1"/><path fill="#ff84a0" d="M50.44 23.98v13.271c0 2.736-2.23 4.965-4.985 4.965H27.102c-2.736 0-4.984-2.229-4.984-4.965V18.898c0-2.756 2.248-5.003 4.984-5.003h13.29c5.552 0 10.047 4.515 10.047 10.085z" data-original="#ff84a0" opacity="1"/><path fill="#f76189" d="M50.436 23.978v13.27c0 2.74-2.23 4.97-4.98 4.97h-18.35c-2.74 0-4.99-2.23-4.99-4.97v-1.82c2.19 1.5 4.78 2.37 7.54 2.37 7.94 0 14.38-7.14 14.38-15.94 0-2.83-.67-5.49-1.85-7.8 4.69.85 8.25 4.96 8.25 9.92z" data-original="#f76189" opacity="1"/><path fill="#ffd9b0" d="M50.44 23.941v8.717H36.2a3.938 3.938 0 0 1-3.938-3.938V13.895h8.13c5.55 0 10.047 4.498 10.047 10.046z" data-original="#ffd9b0" opacity="1"/><path fill="#edb57e" d="M50.436 23.938v8.72h-14.24c-2.17 0-3.93-1.76-3.93-3.94v-1.6c1.53.9 3.37 1.43 5.35 1.43 5.39 0 9.75-3.92 9.75-8.75 0-1.44-.39-2.8-1.07-3.99 2.51 1.83 4.14 4.79 4.14 8.13z" data-original="#edb57e" opacity="1"/><path fill="#0f0f0f" d="M45.455 42.966H27.102c-3.161 0-5.733-2.564-5.733-5.715V18.898c0-3.172 2.572-5.753 5.733-5.753h13.29c5.954 0 10.797 4.86 10.797 10.835v13.271c0 3.151-2.572 5.715-5.734 5.715zM27.102 14.645c-2.334 0-4.233 1.908-4.233 4.253v18.353c0 2.324 1.899 4.215 4.233 4.215h18.353c2.335 0 4.234-1.89 4.234-4.215v-13.27c0-5.148-4.17-9.336-9.296-9.336h-13.29z" data-original="#0f0f0f" opacity="1"/><path fill="#0f0f0f" d="M50.44 33.408H36.2a4.693 4.693 0 0 1-4.688-4.688V13.895a.75.75 0 0 1 .75-.75h8.13c5.954 0 10.797 4.843 10.797 10.796v8.717a.75.75 0 0 1-.75.75zM33.011 14.645V28.72a3.192 3.192 0 0 0 3.189 3.188h13.488v-7.967c0-5.126-4.17-9.296-9.296-9.296h-7.38z" data-original="#0f0f0f" opacity="1"/><path fill="#5b5476" d="M70.388 31.563v2.705a2.99 2.99 0 0 0 2.978 2.978h5.894a2.99 2.99 0 0 0 2.978-2.978v-2.705z" data-original="#5b5476" opacity="1"/><path fill="#3f3b5b" d="M82.236 32.148v2.12c0 1.64-1.34 2.98-2.98 2.98h-5.89c-1.64 0-2.98-1.34-2.98-2.98v-2.12c0 1.63 1.34 2.97 2.98 2.97h5.89c1.64 0 2.98-1.34 2.98-2.97z" data-original="#3f3b5b" opacity="1"/><path fill="#0f0f0f" d="M79.26 37.996h-5.893a3.732 3.732 0 0 1-3.728-3.728v-2.705a.75.75 0 0 1 .75-.75h11.849a.75.75 0 0 1 .75.75v2.705a3.732 3.732 0 0 1-3.728 3.728zm-8.121-5.683v1.955c0 1.229 1 2.228 2.228 2.228h5.893c1.228 0 2.228-1 2.228-2.228v-1.955zM27.845 95.07a.75.75 0 0 1-.367-1.404l15.478-8.683-15.385-6.041a.75.75 0 0 1-.007-1.394l15.572-6.29-15.72-10.933a.75.75 0 0 1 .148-1.311l15.504-6.262-15.625-9.903a.75.75 0 0 1 .803-1.267l16.858 10.685a.75.75 0 0 1-.12 1.329L29.41 59.885l15.72 10.934a.75.75 0 0 1-.147 1.311L29.87 78.234l15.106 5.931a.749.749 0 0 1 .093 1.352L28.21 94.974a.744.744 0 0 1-.366.096z" data-original="#0f0f0f" opacity="1"/><path fill="#dabcbc" d="M6.197 81.865a7.277 7.277 0 0 0 3.694-1.996 7.267 7.267 0 0 0 1.99-3.694.15.15 0 0 1 .296 0 7.268 7.268 0 0 0 1.99 3.694 7.277 7.277 0 0 0 3.693 1.996.15.15 0 0 1 0 .297 7.332 7.332 0 0 0-5.683 5.69.15.15 0 0 1-.297 0 7.226 7.226 0 0 0-1.996-3.694 7.23 7.23 0 0 0-3.687-1.996" data-original="#dabcbc" opacity="1"/><path fill="#bc9595" d="M17.863 82.159a7.328 7.328 0 0 0-5.687 5.697.152.152 0 0 1-.298 0 7.183 7.183 0 0 0-1.848-3.551 4.877 4.877 0 0 0 3.994-4.6c.038.057.096.115.144.163a7.247 7.247 0 0 0 3.695 1.992c.164.039.164.27 0 .299z" data-original="#bc9595" opacity="1"/><path fill="#0f0f0f" d="M12.029 88.73h-.001a.897.897 0 0 1-.882-.726 6.47 6.47 0 0 0-1.79-3.314 6.46 6.46 0 0 0-3.308-1.793.75.75 0 0 1-.586-.883.75.75 0 0 1 .586-.884 6.512 6.512 0 0 0 3.313-1.791 6.506 6.506 0 0 0 1.784-3.313.898.898 0 0 1 .883-.729c.431 0 .794.298.883.724a6.503 6.503 0 0 0 1.786 3.318 6.51 6.51 0 0 0 3.313 1.791.899.899 0 0 1 .004 1.766 6.557 6.557 0 0 0-5.102 5.108.898.898 0 0 1-.883.726zm-3.905-6.716c.846.395 1.621.94 2.292 1.616a7.968 7.968 0 0 1 1.614 2.293 8.055 8.055 0 0 1 3.904-3.909 8.1 8.1 0 0 1-2.298-1.614 8.026 8.026 0 0 1-1.607-2.293 8.041 8.041 0 0 1-1.607 2.293 8.087 8.087 0 0 1-2.298 1.614z" data-original="#0f0f0f" opacity="1"/><path fill="#ffd9b0" d="M98.636 16.114a4.107 4.107 0 1 1-8.216 0 4.107 4.107 0 0 1 4.112-4.104 4.106 4.106 0 0 1 4.104 4.104z" data-original="#ffd9b0" opacity="1"/><path fill="#edb57e" d="M98.636 16.112a4.113 4.113 0 0 1-4.103 4.114 4.126 4.126 0 0 1-3.871-2.717 4.116 4.116 0 0 0 6.025-4.88 4.092 4.092 0 0 1 1.95 3.483z" data-original="#edb57e" opacity="1"/><path fill="#0f0f0f" d="M94.532 20.976a4.867 4.867 0 0 1-4.862-4.862 4.864 4.864 0 0 1 4.862-4.854 4.86 4.86 0 0 1 4.854 4.854 4.864 4.864 0 0 1-4.854 4.862zm0-8.216a3.362 3.362 0 0 0-3.362 3.354 3.366 3.366 0 0 0 3.362 3.362 3.358 3.358 0 0 0 0-6.716z" data-original="#0f0f0f" opacity="1"/><path fill="#fff" d="M98.803 57.886v29.048a6.34 6.34 0 0 1-6.338 6.338H58.338c-3.505 0-6.35-2.844-6.35-6.338V57.886a6.342 6.342 0 0 1 6.35-6.338h34.127a6.333 6.333 0 0 1 6.338 6.338z" data-original="#ffffff" opacity="1"/><path fill="#ddd" d="M98.803 57.886v29.048a6.34 6.34 0 0 1-6.338 6.338H58.338c-3.505 0-6.35-2.844-6.35-6.338v-1.658c3.968 2.287 8.648 3.61 13.675 3.61 14.345 0 25.973-10.767 25.973-24.042 0-4.911-1.595-9.487-4.334-13.296h5.163a6.333 6.333 0 0 1 6.338 6.338z" data-original="#dddddd" opacity="1"/><path fill="#c3c9fb" d="M98.803 60.905v-3.019a6.333 6.333 0 0 0-6.338-6.338H58.338a6.342 6.342 0 0 0-6.35 6.338v3.019z" data-original="#c3c9fb" opacity="1"/><path fill="#8693e2" d="M98.803 57.886v3.023H51.99v-3.023c0-1.658.64-3.18 1.7-4.302 3.536 2.456 12.194 4.176 22.32 4.176 9.435 0 17.59-1.5 21.524-3.673a6.266 6.266 0 0 1 1.27 3.8z" data-original="#8693e2" opacity="1"/><path fill="#0f0f0f" d="M92.465 94.022H58.338c-3.915 0-7.1-3.18-7.1-7.088V57.886c0-3.908 3.185-7.088 7.1-7.088h34.127a7.096 7.096 0 0 1 7.088 7.088v29.048a7.096 7.096 0 0 1-7.088 7.088zM58.338 52.298c-3.088 0-5.6 2.507-5.6 5.588v29.048c0 3.081 2.512 5.588 5.6 5.588h34.127a5.595 5.595 0 0 0 5.588-5.588V57.886a5.595 5.595 0 0 0-5.588-5.588z" data-original="#0f0f0f" opacity="1"/><path fill="#0f0f0f" d="M98.803 61.655H51.99a.75.75 0 0 1-.75-.75v-3.019c0-3.908 3.184-7.088 7.099-7.088h34.127a7.096 7.096 0 0 1 7.088 7.088v3.019a.75.75 0 0 1-.75.75zm-46.064-1.5h45.314v-2.269a5.595 5.595 0 0 0-5.588-5.588H58.338c-3.088 0-5.6 2.507-5.6 5.588z" data-original="#0f0f0f" opacity="1"/><path fill="#0f0f0f" d="M72.218 56.976h-14.43a.75.75 0 0 1 0-1.5h14.43a.75.75 0 0 1 0 1.5zM87.303 52.298a.745.745 0 0 1-.441-.144l-10.55-7.682-10.551 7.682a.75.75 0 0 1-.883-1.212l10.992-8.004a.749.749 0 0 1 .883 0l10.991 8.004a.75.75 0 0 1-.441 1.356z" data-original="#0f0f0f" opacity="1"/><path fill="#000" d="M65.507 82.959v-3.392h-6.085v-1.705l6.357-8.818h1.472v9.002h2.045v1.521h-2.045v3.392zm-.029-4.913v-6.289l-4.448 6.29zM79.218 71.302c.62 1.143.93 2.71.93 4.7 0 1.886-.28 3.446-.842 4.68-.814 1.77-2.145 2.655-3.992 2.655-1.667 0-2.908-.723-3.722-2.17-.678-1.209-1.017-2.83-1.017-4.865 0-1.576.203-2.93.61-4.06.763-2.106 2.142-3.16 4.138-3.16 1.796 0 3.095.74 3.895 2.22zm-1.754 9.244c.537-.8.805-2.293.805-4.477 0-1.576-.194-2.873-.582-3.89-.387-1.018-1.14-1.526-2.257-1.526-1.028 0-1.778.483-2.253 1.448-.475.966-.713 2.389-.713 4.269 0 1.414.152 2.551.456 3.41.465 1.312 1.26 1.968 2.384 1.968.904 0 1.624-.4 2.16-1.202zM87.581 82.959v-3.392h-6.085v-1.705l6.356-8.818h1.473v9.002h2.045v1.521h-2.045v3.392zm-.03-4.913v-6.289l-4.447 6.29z" data-original="#000000" opacity="1"/></g></svg>